# xmcd CD database file
#
# Track frame offsets:
#	150
#	21472
#	38825
#	58737
#	77932
#	96007
#	116027
#	135000
#	151320
#	169952
#	186992
#	208490
#	227427
#	245872
#	261605
#	282205
#
# Disc length: 4037 seconds
#
# Revision: 0
# Processed by: cddbd v1.5.1PL0 Copyright (c) Steve Scherf et al.
# Submitted via: CDex 1.51
#
DISCID=ed0fc310
DTITLE=オムニバス - 祝い演歌〜結婚式で歌える歌〜
DYEAR=2002
DGENRE=Vocal
TTITLE0=男侠(おとこぎ) - 坂本冬美
TTITLE1=おんなの純情 - 中村美律子
TTITLE2=春が来た - 服部浩子
TTITLE3=孫 - 宮路オサム
TTITLE4=披露宴 - 中村美律子
TTITLE5=二輪草 - 服部浩子
TTITLE6=しあわせ酒 - 中村美律子
TTITLE7=北空港 - 桂 銀淑＆浜 圭介
TTITLE8=祝い酒 - 坂本冬美
TTITLE9=だんな様 - 三船和子
TTITLE10=箱根八里の半次郎 - 宮路オサム
TTITLE11=嫁ぐ日よ - 村田英雄
TTITLE12=祝い船 - 三船和子
TTITLE13=泣かないで - 山川 豊
TTITLE14=嫁いだ娘の幸せを - 三船和子
TTITLE15=ふたり咲き - 坂本冬美
EXTD=YEAR: 2002
EXTT0=
EXTT1=
EXTT2=
EXTT3=
EXTT4=
EXTT5=
EXTT6=
EXTT7=
EXTT8=
EXTT9=
EXTT10=
EXTT11=
EXTT12=
EXTT13=
EXTT14=
EXTT15=
PLAYORDER=
